<?xml version="1.0" encoding="utf-8"?>
<!-- Generator: Adobe Illustrator 23.0.0, SVG Export Plug-In . SVG Version: 6.00 Build 0)  -->
<svg version="1.1" id="Calque_1" xmlns="http://www.w3.org/2000/svg" xmlns:xlink="http://www.w3.org/1999/xlink" x="0px" y="0px"
	 viewBox="0 0 816.4 181.9" style="enable-background:new 0 0 816.4 181.9;" xml:space="preserve">
<style type="text/css">
	.st0{display:none;clip-path:url(#SVGID_3_);}
	.st1{display:inline;fill:url(#SVGID_4_);}
	.st2{clip-path:url(#SVGID_6_);}
	.st3{fill:url(#SVGID_7_);}
	.st4{display:none;fill:#EF5023;}
	.st5{fill:#901A1D;}
	.st6{fill:#A41E22;}
	.st7{display:none;opacity:0.1;fill:#FFFFFF;enable-background:new    ;}
	.st8{display:none;opacity:0.2;fill:#901A1D;enable-background:new    ;}
	.st9{fill:#FFFFFF;}
	.st10{fill:url(#SVGID_8_);}
	.st11{fill:#EB3C29;}
	.st12{fill-rule:evenodd;clip-rule:evenodd;fill:#FFFFFF;}
</style>
<title>site-logo</title>
<g>
	<g>
		<g>
			<g>
				<path id="SVGID_1_" d="M7.2,165.9c-3.3-3.5-3.6-8.1-3.6-8.1c0-13.9,0-109.6,0-109.6s0.7-4.3,2.4-6.5s4.7-3.8,4.7-3.8L89.6,6.8
					c0,0,2.9-1.4,5.6-1.4s5.9,1.4,5.9,1.4L175.2,38c0,0,2.8,1.1,4.7,3.6s2.2,6.7,2.2,6.7v109.5c0,0-0.2,5-3,7.8
					c-3.3,3.3-8.2,3.7-8.2,3.7s-76.9,7.6-75.8,7.6s-79.8-7.6-79.8-7.6S10.1,169,7.2,165.9z"/>
			</g>
			<g>
				<defs>
					<path id="SVGID_2_" d="M7.2,165.9c-3.3-3.5-3.6-8.1-3.6-8.1c0-13.9,0-109.6,0-109.6s0.7-4.3,2.4-6.5s4.7-3.8,4.7-3.8L89.6,6.8
						c0,0,2.9-1.4,5.6-1.4s5.9,1.4,5.9,1.4L175.2,38c0,0,2.8,1.1,4.7,3.6s2.2,6.7,2.2,6.7v109.5c0,0-0.2,5-3,7.8
						c-3.3,3.3-8.2,3.7-8.2,3.7s-76.9,7.6-75.8,7.6s-79.8-7.6-79.8-7.6S10.1,169,7.2,165.9z"/>
				</defs>
				<clipPath id="SVGID_3_">
					<use xlink:href="#SVGID_2_"  style="overflow:visible;"/>
				</clipPath>
				<g class="st0">
					
						<radialGradient id="SVGID_4_" cx="-287.9763" cy="-830.8619" r="275.2746" fx="-248.3093" fy="-794.8477" gradientTransform="matrix(0.3364 0 0 -0.3347 156.4952 -210.3638)" gradientUnits="userSpaceOnUse">
						<stop  offset="0" style="stop-color:#FFFFFF"/>
						<stop  offset="1" style="stop-color:#000000"/>
					</radialGradient>
					<ellipse class="st1" cx="53.3" cy="58.9" rx="87.5" ry="79"/>
				</g>
			</g>
		</g>
		<path d="M95,177.5L95,177.5L95,177.5c-0.2,0-0.5,0-0.8-0.1l0,0c-0.6-0.1-1.4-0.1-2.5-0.3l0,0c-2.2-0.2-5.3-0.5-9-0.9l0,0
			c-7.5-0.7-17.5-1.7-27.4-2.6l0,0c-20-1.9-39.9-3.7-39.9-3.7l0,0c-0.1,0-5.4-0.2-8.6-3.6l0,0l0.5-0.4l0.5-0.4
			c2.6,2.9,7.7,3.2,7.7,3.2l0,0c0,0,74.6,7,79.6,7.5l0,0c0.1,0,0.1,0,0.2,0l0,0h0.1l0,0c0.2,0,0.4,0,0.6-0.1l0,0
			c0.6-0.1,1.4-0.1,2.4-0.3l0,0c2.1-0.2,5-0.5,8.6-0.9l0,0c7.1-0.7,16.6-1.7,26-2.6l0,0c18.9-1.9,37.9-3.8,37.9-3.8l0,0
			c0,0,1.2-0.1,2.7-0.6l0,0c1.6-0.5,3.5-1.4,5.1-2.9l0,0c2.6-2.5,2.8-7.3,2.8-7.3l0,0V48.3c0,0-0.3-4.1-2-6.3l0,0
			c-1.7-2.4-4.4-3.4-4.4-3.4l0,0L100.8,7.4c0,0-0.8-0.3-1.9-0.7l0,0C97.8,6.4,96.4,6,95.2,6l0,0c-2.5,0-5.3,1.3-5.3,1.4l0,0L11,38.5
			c0,0-3,1.6-4.5,3.6l0,0c-1.5,2-2.2,6.2-2.2,6.1l0,0c0,0,0,23.9,0,49.6l0,0c0,25.7,0,53.1,0,60l0,0c0,0,0.1,1,0.5,2.5l0,0
			c0.5,1.5,1.3,3.4,2.9,5.1l0,0l-0.5,0.4l-0.5,0.4C3.3,162.6,3,158,3,157.9l0,0c0-7,0-34.4,0-60l0,0c0-25.7,0-49.5,0-49.7l0,0
			c0,0,0.7-4.4,2.5-6.8l0,0c1.8-2.4,4.9-3.9,5-4l0,0L89.3,6.3c0,0,2.9-1.5,5.9-1.5l0,0c2.9,0,6.1,1.5,6.1,1.5l0,0l74.2,31.1
			c0.1,0,3,1.2,5,3.9l0,0c2,2.8,2.3,7,2.3,7.1l0,0v109.5c0,0.1-0.1,5.1-3.1,8.2l0,0c-3.5,3.5-8.5,3.9-8.6,3.9l0,0
			c0,0-18.6,1.8-37.3,3.7l0,0c-18.4,1.8-37,3.7-38.3,3.9l0,0c-0.1,0-0.1,0-0.2,0l0,0l0,0l0,0C95.1,177.5,95,177.5,95,177.5L95,177.5
			z"/>
	</g>
	<g>
		<g>
			<defs>
				<polygon id="SVGID_5_" points="95.2,15.9 171.4,48 171.4,159 95,166 14.5,159.1 14.5,48.2 				"/>
			</defs>
			<clipPath id="SVGID_6_">
				<use xlink:href="#SVGID_5_"  style="overflow:visible;"/>
			</clipPath>
			<g class="st2">
				
					<radialGradient id="SVGID_7_" cx="-161.4524" cy="-897.4554" r="307.1254" gradientTransform="matrix(0.3388 0 0 -0.3388 155.7883 -208.4946)" gradientUnits="userSpaceOnUse">
					<stop  offset="0.3956" style="stop-color:#F1612D"/>
					<stop  offset="0.6538" style="stop-color:#EB3C29"/>
					<stop  offset="1" style="stop-color:#A41E22"/>
				</radialGradient>
				<polygon class="st3" points="18.5,53.3 95.3,21.9 168.3,52 168.7,163.9 95.6,172.5 18.1,162 				"/>
				<polygon class="st4" points="18.5,53.3 95.3,21.9 168.3,52 168.7,163.9 95.6,172.5 18.1,162 				"/>
				<polygon class="st5" points="95.2,168.1 11.8,159.2 95.3,156.6 174,159.1 				"/>
				<polygon class="st6" points="20.1,55.3 95.4,67.3 167.3,55.9 95.4,26 				"/>
				<path class="st7" d="M86.5,63.4C62.4,54.2,39.2,59.3,18.9,97c-0.4-18.1-0.2-44.6-0.2-44.6l66.1-25.6L86.5,63.4z"/>
				<path class="st8" d="M107.4,134.4c7.7,12.5,56,23.7,55.5-83.5c6.2,2.6,5.2,4.5,5.2,4.5l0.4,109.1l-63.1,7.1L107.4,134.4z"/>
				<polygon class="st9" points="93.1,169.3 93.1,14 12.9,46.5 12.9,160.9 22.2,161.6 22.2,55.3 81.5,32.3 81.5,166.8 				"/>
				<polygon class="st9" points="97.8,169.3 97.8,14.8 173.4,46.8 173.4,161.1 165.3,161.7 165.3,55.9 109.7,33.3 109.7,166.7 				
					"/>
				
					<linearGradient id="SVGID_8_" gradientUnits="userSpaceOnUse" x1="97.05" y1="240.9724" x2="97.05" y2="-6.4829" gradientTransform="matrix(1 0 0 -1 0 184)">
					<stop  offset="0" style="stop-color:#A41E22"/>
					<stop  offset="1" style="stop-color:#EB3C29"/>
				</linearGradient>
				<polygon class="st10" points="99.2,15.9 99.2,167.5 94.9,167.8 94.9,13.9 				"/>
				<polygon class="st11" points="91.1,15.7 91.1,167.7 95.2,168.1 95.2,13.6 				"/>
			</g>
		</g>
	</g>
</g>
<g id="MATERIEL">
	<g>
		<g>
			<path class="st12" d="M235.3,90.8l-20.5-43.3h-9.5v63.8h9.5v-41l20.5,41L255.8,70v41.3h9.5V47.5h-9.5L235.3,90.8z M292.6,47.5
				l-23.9,63.8h10.2l18.5-49.2l15.2,39.7h-20.7l-3.7,9.5h37.7l-23.8-63.8C302.1,47.5,292.6,47.5,292.6,47.5z M323.9,57h17.6v54.3
				h9.5V57h17.1v-9.5h-44.2V57z M376.2,111.3h36.6v-9.5h-27.1V84.2h27.1v-9.5h-27.1V57.1h27.1v-9.6h-36.6V111.3z M493.4,47.5v63.8
				h9.5V47.5C502.9,47.5,493.4,47.5,493.4,47.5z M525.7,101.8V84.2h27.1v-9.5h-27.1V57h27.1v-9.5h-36.6v63.8h36.7v-9.5H525.7z
				 M576.2,47.5h-9.5v63.8h44.2v-9.5h-34.7V47.5z M696.4,93.9l-40.5-46.4h-9.5v63.8h9.5V65.8l40.4,45.5h9.6V47.5h-9.5V93.9z
				 M757.4,47.5h-0.2H714v63.8h43.3v-9.5h-33.8V84.2h33.8v-9.5h-33.8V57h33.6h0.2h30v54.3h9V57H814v-9.5H757.4z M479.4,67.8
				c0-18.5-18.3-20.3-18.3-20.3h-34.4l-0.1,63.7h9.5V88h16.4l15.5,23.2h11.3L463.8,88C463.8,88,479.4,86.3,479.4,67.8z M461.1,78.6
				h-24.9V57h24.9c0,0,8.6-1,8.6,10.8S461.1,78.6,461.1,78.6z"/>
		</g>
	</g>
	<rect x="624.5" y="101.8" class="st12" width="9.5" height="9.5"/>
</g>
<g id="VECTO">
	<path class="st9" d="M208.6,132.3v26h-3.4v-26H208.6z"/>
	<path class="st9" d="M223.5,144.7c0-1.9,0-3.5-0.2-5.1h3l0.2,3.1h0.1c0.9-1.8,3.1-3.5,6.2-3.5c2.6,0,6.6,1.5,6.6,8v11.2H236v-10.8
		c0-3-1.1-5.5-4.3-5.5c-2.2,0-4,1.6-4.6,3.5c-0.2,0.4-0.2,1-0.2,1.6v11.2h-3.4V144.7z"/>
	<path class="st9" d="M254.1,158.4v-16.1h-2.6v-2.6h2.6v-0.9c0-2.6,0.6-5,2.2-6.5c1.3-1.2,3-1.7,4.6-1.7c1.2,0,2.2,0.3,2.9,0.5
		l-0.5,2.6c-0.5-0.2-1.2-0.4-2.2-0.4c-2.9,0-3.6,2.5-3.6,5.4v1h4.5v2.6h-4.5v16.1L254.1,158.4L254.1,158.4z"/>
	<path class="st9" d="M290.2,148.9c0,6.9-4.8,9.9-9.3,9.9c-5.1,0-9-3.7-9-9.6c0-6.3,4.1-9.9,9.3-9.9
		C286.5,139.3,290.2,143.2,290.2,148.9z M275.3,149.1c0,4.1,2.4,7.2,5.7,7.2c3.2,0,5.7-3,5.7-7.3c0-3.2-1.6-7.2-5.6-7.2
		S275.3,145.5,275.3,149.1z"/>
	<path class="st9" d="M303.2,145.5c0-2.2,0-4.1-0.2-5.8h3l0.1,3.7h0.2c0.8-2.5,2.9-4.1,5.2-4.1c0.4,0,0.7,0,1,0.1v3.2
		c-0.3-0.1-0.7-0.1-1.2-0.1c-2.4,0-4.1,1.8-4.6,4.4c-0.1,0.5-0.2,1-0.2,1.6v10h-3.4v-13H303.2z"/>
	<path class="st9" d="M324.7,144.7c0-1.9,0-3.5-0.2-5.1h3l0.2,3h0.1c1-1.8,2.8-3.4,5.9-3.4c2.5,0,4.5,1.5,5.3,3.7h0.1
		c0.6-1,1.3-1.9,2.1-2.4c1.1-0.8,2.4-1.3,4.1-1.3c2.5,0,6.1,1.6,6.1,8.1v11h-3.3v-10.6c0-3.6-1.3-5.8-4.1-5.8c-1.9,0-3.4,1.4-4,3.1
		c-0.2,0.5-0.3,1.1-0.3,1.7v11.5h-3.3V147c0-3-1.3-5.1-3.9-5.1c-2.1,0-3.7,1.7-4.2,3.4c-0.2,0.5-0.3,1.1-0.3,1.7v11.3h-3.3
		L324.7,144.7L324.7,144.7z"/>
	<path class="st9" d="M376,158.4l-0.3-2.4h-0.1c-1,1.5-3,2.8-5.7,2.8c-3.8,0-5.7-2.7-5.7-5.4c0-4.5,4-7,11.2-6.9v-0.4
		c0-1.5-0.4-4.3-4.2-4.3c-1.7,0-3.6,0.5-4.9,1.4l-0.8-2.2c1.5-1,3.8-1.7,6.1-1.7c5.7,0,7.1,3.9,7.1,7.6v7c0,1.6,0.1,3.2,0.3,4.5
		L376,158.4L376,158.4z M375.5,148.8c-3.7-0.1-7.9,0.6-7.9,4.2c0,2.2,1.5,3.2,3.2,3.2c2.4,0,4-1.5,4.5-3.1c0.1-0.3,0.2-0.7,0.2-1.1
		L375.5,148.8L375.5,148.8z"/>
	<path class="st9" d="M397,134.3v5.4h4.9v2.6H397v10.1c0,2.3,0.7,3.6,2.5,3.6c0.9,0,1.5-0.1,2-0.2l0.2,2.5c-0.7,0.3-1.7,0.5-3,0.5
		c-1.6,0-2.9-0.5-3.7-1.4c-1-1-1.3-2.7-1.3-4.9v-10.2h-2.9v-2.6h2.9v-4.5L397,134.3z"/>
	<path class="st9" d="M418.2,134.4c0,1.2-0.8,2.1-2.2,2.1c-1.2,0-2-0.9-2-2.1c0-1.2,0.9-2.1,2.1-2.1
		C417.4,132.3,418.2,133.2,418.2,134.4z M414.4,158.4v-18.7h3.4v18.7H414.4z"/>
	<path class="st9" d="M445,155.5L445,155.5c-1.1,1.9-3.2,3.3-6.2,3.3c-4.4,0-7.9-3.8-7.9-9.5c0-7,4.5-10.1,8.5-10.1
		c2.9,0,4.8,1.4,5.8,3.2h0.1l0.1-2.8h3.2c-0.1,1.6-0.1,3.2-0.1,5.1V166H445V155.5z M445,147.3c0-0.5,0-1-0.2-1.4
		c-0.5-2.1-2.3-3.9-4.9-3.9c-3.5,0-5.6,3-5.6,7.2c0,3.7,1.8,6.9,5.5,6.9c2.2,0,4.1-1.4,4.9-3.7c0.2-0.5,0.3-1.1,0.3-1.6L445,147.3
		L445,147.3z"/>
	<path class="st9" d="M478.4,153.3c0,1.9,0,3.6,0.2,5.1h-3l-0.2-3h-0.1c-0.9,1.5-2.9,3.5-6.2,3.5c-2.9,0-6.4-1.6-6.4-8.2v-10.9h3.4
		V150c0,3.6,1.1,5.9,4.2,5.9c2.3,0,3.9-1.6,4.5-3.1c0.2-0.5,0.3-1.1,0.3-1.7v-11.5h3.4L478.4,153.3L478.4,153.3z"/>
	<path class="st9" d="M494.6,149.6c0.1,4.6,3,6.5,6.4,6.5c2.4,0,3.9-0.4,5.2-1l0.6,2.4c-1.2,0.5-3.2,1.2-6.2,1.2
		c-5.8,0-9.2-3.8-9.2-9.4c0-5.6,3.3-10.1,8.8-10.1c6.1,0,7.7,5.4,7.7,8.8c0,0.7-0.1,1.2-0.1,1.6H494.6z M504.6,147.2
		c0-2.2-0.9-5.5-4.7-5.5c-3.4,0-4.9,3.2-5.2,5.5H504.6z"/>
	<path class="st9" d="M554.2,158.4c-0.7-0.7-1.4-1.5-2.4-2.5c-2.2,2.1-4.7,3-7.6,3c-5.1,0-8-3.4-8-7.3c0-3.6,2.1-6,5.1-7.6v-0.1
		c-1.4-1.7-2.2-3.6-2.2-5.4c0-3.2,2.3-6.4,6.6-6.4c3.2,0,5.8,2.2,5.8,5.5c0,2.7-1.6,4.9-5.7,6.9v0.1c2.2,2.5,4.7,5.4,6.3,7.3
		c1.2-1.8,2-4.3,2.5-7.6h3.1c-0.7,4.1-1.8,7.3-3.7,9.6c1.4,1.5,2.7,2.9,4.3,4.6h-4.1V158.4z M550.1,153.9c-1.5-1.7-4.4-4.9-7.3-8.2
		c-1.4,0.9-3.4,2.5-3.4,5.3c0,3,2.2,5.3,5.3,5.3C547,156.2,548.9,155.2,550.1,153.9z M542.2,138c0,1.9,0.8,3.3,2,4.7
		c2.6-1.5,4.3-2.9,4.3-5.1c0-1.6-0.9-3.4-3-3.4C543.3,134.2,542.2,136,542.2,138z"/>
	<path class="st9" d="M590.3,132.3v10.9h12.6v-10.9h3.4v26h-3.4v-12.2h-12.6v12.2H587v-26H590.3z"/>
	<path class="st9" d="M624.9,134.4c0,1.2-0.8,2.1-2.2,2.1c-1.2,0-2-0.9-2-2.1c0-1.2,0.9-2.1,2.1-2.1
		C624.1,132.3,624.9,133.2,624.9,134.4z M621.2,158.4v-18.7h3.4v18.7H621.2z"/>
	<path class="st9" d="M655.1,139.7c-0.1,1.4-0.2,2.9-0.2,5.1v10.8c0,4.3-0.8,6.9-2.7,8.5c-1.8,1.7-4.4,2.2-6.8,2.2
		c-2.2,0-4.7-0.5-6.2-1.5l0.8-2.6c1.2,0.8,3.2,1.5,5.5,1.5c3.5,0,6-1.8,6-6.5v-2.1h-0.1c-1,1.7-3,3.1-5.9,3.1c-4.6,0-8-3.9-8-9.1
		c0-6.3,4.1-9.9,8.4-9.9c3.2,0,5,1.7,5.8,3.2h0.1l0.2-2.8h3.1V139.7z M651.5,147.1c0-0.6,0-1.1-0.2-1.5c-0.6-2-2.3-3.6-4.7-3.6
		c-3.2,0-5.6,2.7-5.6,7.1c0,3.7,1.9,6.7,5.5,6.7c2.1,0,4-1.3,4.7-3.5c0.2-0.6,0.3-1.2,0.3-1.8V147.1z"/>
	<path class="st9" d="M669.3,131h3.4v11.7h0.1c0.5-1,1.4-1.8,2.4-2.4c1-0.6,2.2-1,3.5-1c2.5,0,6.5,1.5,6.5,8v11.1h-3.4v-10.7
		c0-3-1.1-5.6-4.3-5.6c-2.2,0-3.9,1.5-4.6,3.4c-0.2,0.5-0.2,1-0.2,1.6v11.3h-3.4V131z"/>
	<path class="st9" d="M707.4,146.7v2.5h-9.5v-2.5H707.4z"/>
	<path class="st9" d="M723.2,135.2h-7.9v-2.9h19.3v2.9h-8v23.2h-3.4L723.2,135.2L723.2,135.2z"/>
	<path class="st9" d="M745.3,149.6c0.1,4.6,3,6.5,6.4,6.5c2.4,0,3.9-0.4,5.2-1l0.6,2.4c-1.2,0.5-3.2,1.2-6.2,1.2
		c-5.8,0-9.2-3.8-9.2-9.4c0-5.6,3.3-10.1,8.8-10.1c6.1,0,7.7,5.4,7.7,8.8c0,0.7-0.1,1.2-0.1,1.6H745.3z M755.2,147.2
		c0-2.2-0.9-5.5-4.7-5.5c-3.4,0-4.9,3.2-5.2,5.5H755.2z"/>
	<path class="st9" d="M784.8,157.7c-0.9,0.5-2.9,1.1-5.4,1.1c-5.6,0-9.3-3.8-9.3-9.5c0-5.8,3.9-9.9,10-9.9c2,0,3.8,0.5,4.7,1
		L784,143c-0.8-0.5-2.1-0.9-3.9-0.9c-4.3,0-6.6,3.2-6.6,7.1c0,4.3,2.8,7,6.5,7c1.9,0,3.2-0.5,4.2-0.9L784.8,157.7z"/>
	<path class="st9" d="M797.5,131h3.4v11.7h0.1c0.5-1,1.4-1.8,2.4-2.4c1-0.6,2.2-1,3.5-1c2.5,0,6.5,1.5,6.5,8v11.1H810v-10.7
		c0-3-1.1-5.6-4.3-5.6c-2.2,0-3.9,1.5-4.6,3.4c-0.2,0.5-0.2,1-0.2,1.6v11.3h-3.4V131z"/>
</g>
</svg>
